<svg xmlns="http://www.w3.org/2000/svg" viewBox="0 0 64 64">
  <defs>
    <radialGradient id="bg" cx="50%" cy="42%" r="52%">
      <stop offset="0%" stop-color="#FEFCFE"/>
      <stop offset="100%" stop-color="#F5EEF8"/>
    </radialGradient>
  </defs>

  <!-- 背景円 -->
  <circle cx="32" cy="32" r="31" fill="url(#bg)"/>

  <g transform="translate(32,32)">
    <!-- 外側レイヤー: 8枚 丸つまみ（淡い藤色） -->
    <path fill="#E8D5F0" stroke="#C9A2D8" stroke-width="0.4" d="M 4,0 C 4.7,1.62 6.1,3.6 8.9,4.32 C 11.7,4.86 14.5,4.32 16.32,3.24 Q 18.28,1.98 18.28,0 Q 18.28,-1.98 16.32,-3.24 C 14.5,-4.32 11.7,-4.86 8.9,-4.32 C 6.1,-3.6 4.7,-1.62 4,0 Z" transform="rotate(0)"/>
    <path fill="#E8D5F0" stroke="#C9A2D8" stroke-width="0.4" d="M 4,0 C 4.7,1.62 6.1,3.6 8.9,4.32 C 11.7,4.86 14.5,4.32 16.32,3.24 Q 18.28,1.98 18.28,0 Q 18.28,-1.98 16.32,-3.24 C 14.5,-4.32 11.7,-4.86 8.9,-4.32 C 6.1,-3.6 4.7,-1.62 4,0 Z" transform="rotate(45)"/>
    <path fill="#E8D5F0" stroke="#C9A2D8" stroke-width="0.4" d="M 4,0 C 4.7,1.62 6.1,3.6 8.9,4.32 C 11.7,4.86 14.5,4.32 16.32,3.24 Q 18.28,1.98 18.28,0 Q 18.28,-1.98 16.32,-3.24 C 14.5,-4.32 11.7,-4.86 8.9,-4.32 C 6.1,-3.6 4.7,-1.62 4,0 Z" transform="rotate(90)"/>
    <path fill="#E8D5F0" stroke="#C9A2D8" stroke-width="0.4" d="M 4,0 C 4.7,1.62 6.1,3.6 8.9,4.32 C 11.7,4.86 14.5,4.32 16.32,3.24 Q 18.28,1.98 18.28,0 Q 18.28,-1.98 16.32,-3.24 C 14.5,-4.32 11.7,-4.86 8.9,-4.32 C 6.1,-3.6 4.7,-1.62 4,0 Z" transform="rotate(135)"/>
    <path fill="#E8D5F0" stroke="#C9A2D8" stroke-width="0.4" d="M 4,0 C 4.7,1.62 6.1,3.6 8.9,4.32 C 11.7,4.86 14.5,4.32 16.32,3.24 Q 18.28,1.98 18.28,0 Q 18.28,-1.98 16.32,-3.24 C 14.5,-4.32 11.7,-4.86 8.9,-4.32 C 6.1,-3.6 4.7,-1.62 4,0 Z" transform="rotate(180)"/>
    <path fill="#E8D5F0" stroke="#C9A2D8" stroke-width="0.4" d="M 4,0 C 4.7,1.62 6.1,3.6 8.9,4.32 C 11.7,4.86 14.5,4.32 16.32,3.24 Q 18.28,1.98 18.28,0 Q 18.28,-1.98 16.32,-3.24 C 14.5,-4.32 11.7,-4.86 8.9,-4.32 C 6.1,-3.6 4.7,-1.62 4,0 Z" transform="rotate(225)"/>
    <path fill="#E8D5F0" stroke="#C9A2D8" stroke-width="0.4" d="M 4,0 C 4.7,1.62 6.1,3.6 8.9,4.32 C 11.7,4.86 14.5,4.32 16.32,3.24 Q 18.28,1.98 18.28,0 Q 18.28,-1.98 16.32,-3.24 C 14.5,-4.32 11.7,-4.86 8.9,-4.32 C 6.1,-3.6 4.7,-1.62 4,0 Z" transform="rotate(270)"/>
    <path fill="#E8D5F0" stroke="#C9A2D8" stroke-width="0.4" d="M 4,0 C 4.7,1.62 6.1,3.6 8.9,4.32 C 11.7,4.86 14.5,4.32 16.32,3.24 Q 18.28,1.98 18.28,0 Q 18.28,-1.98 16.32,-3.24 C 14.5,-4.32 11.7,-4.86 8.9,-4.32 C 6.1,-3.6 4.7,-1.62 4,0 Z" transform="rotate(315)"/>

    <!-- 内側レイヤー: 8枚 丸つまみ（淡い桜色、22.5度ずらし） -->
    <path fill="#F2D4DC" stroke="#D4A0B0" stroke-width="0.4" d="M 2.5,0 C 3,1.26 3.9,2.8 5.75,3.36 C 7.6,3.78 9.5,3.36 10.66,2.52 Q 11.94,1.54 11.94,0 Q 11.94,-1.54 10.66,-2.52 C 9.5,-3.36 7.6,-3.78 5.75,-3.36 C 3.9,-2.8 3,-1.26 2.5,0 Z" transform="rotate(22.5)"/>
    <path fill="#F2D4DC" stroke="#D4A0B0" stroke-width="0.4" d="M 2.5,0 C 3,1.26 3.9,2.8 5.75,3.36 C 7.6,3.78 9.5,3.36 10.66,2.52 Q 11.94,1.54 11.94,0 Q 11.94,-1.54 10.66,-2.52 C 9.5,-3.36 7.6,-3.78 5.75,-3.36 C 3.9,-2.8 3,-1.26 2.5,0 Z" transform="rotate(67.5)"/>
    <path fill="#F2D4DC" stroke="#D4A0B0" stroke-width="0.4" d="M 2.5,0 C 3,1.26 3.9,2.8 5.75,3.36 C 7.6,3.78 9.5,3.36 10.66,2.52 Q 11.94,1.54 11.94,0 Q 11.94,-1.54 10.66,-2.52 C 9.5,-3.36 7.6,-3.78 5.75,-3.36 C 3.9,-2.8 3,-1.26 2.5,0 Z" transform="rotate(112.5)"/>
    <path fill="#F2D4DC" stroke="#D4A0B0" stroke-width="0.4" d="M 2.5,0 C 3,1.26 3.9,2.8 5.75,3.36 C 7.6,3.78 9.5,3.36 10.66,2.52 Q 11.94,1.54 11.94,0 Q 11.94,-1.54 10.66,-2.52 C 9.5,-3.36 7.6,-3.78 5.75,-3.36 C 3.9,-2.8 3,-1.26 2.5,0 Z" transform="rotate(157.5)"/>
    <path fill="#F2D4DC" stroke="#D4A0B0" stroke-width="0.4" d="M 2.5,0 C 3,1.26 3.9,2.8 5.75,3.36 C 7.6,3.78 9.5,3.36 10.66,2.52 Q 11.94,1.54 11.94,0 Q 11.94,-1.54 10.66,-2.52 C 9.5,-3.36 7.6,-3.78 5.75,-3.36 C 3.9,-2.8 3,-1.26 2.5,0 Z" transform="rotate(202.5)"/>
    <path fill="#F2D4DC" stroke="#D4A0B0" stroke-width="0.4" d="M 2.5,0 C 3,1.26 3.9,2.8 5.75,3.36 C 7.6,3.78 9.5,3.36 10.66,2.52 Q 11.94,1.54 11.94,0 Q 11.94,-1.54 10.66,-2.52 C 9.5,-3.36 7.6,-3.78 5.75,-3.36 C 3.9,-2.8 3,-1.26 2.5,0 Z" transform="rotate(247.5)"/>
    <path fill="#F2D4DC" stroke="#D4A0B0" stroke-width="0.4" d="M 2.5,0 C 3,1.26 3.9,2.8 5.75,3.36 C 7.6,3.78 9.5,3.36 10.66,2.52 Q 11.94,1.54 11.94,0 Q 11.94,-1.54 10.66,-2.52 C 9.5,-3.36 7.6,-3.78 5.75,-3.36 C 3.9,-2.8 3,-1.26 2.5,0 Z" transform="rotate(292.5)"/>
    <path fill="#F2D4DC" stroke="#D4A0B0" stroke-width="0.4" d="M 2.5,0 C 3,1.26 3.9,2.8 5.75,3.36 C 7.6,3.78 9.5,3.36 10.66,2.52 Q 11.94,1.54 11.94,0 Q 11.94,-1.54 10.66,-2.52 C 9.5,-3.36 7.6,-3.78 5.75,-3.36 C 3.9,-2.8 3,-1.26 2.5,0 Z" transform="rotate(337.5)"/>

    <!-- 花芯: パール -->
    <circle r="4.2" fill="#FEF9E7" stroke="#D4A574" stroke-width="0.5"/>
    <circle r="2.8" fill="#FFF3D4" opacity="0.5"/>
    <circle r="1" fill="white" opacity="0.6" cx="-1" cy="-1"/>
  </g>
</svg>
