<svg xmlns="http://www.w3.org/2000/svg" viewBox="0 0 1200 630">
  <defs>
    <radialGradient id="bg" cx="50%" cy="40%" r="60%">
      <stop offset="0%" stop-color="#FEFCFE"/>
      <stop offset="100%" stop-color="#F0E6F6"/>
    </radialGradient>
  </defs>

  <!-- 背景 -->
  <rect width="1200" height="630" fill="url(#bg)"/>

  <!-- 花 -->
  <g transform="translate(600,260)">
    <!-- 外側レイヤー: 8枚 丸つまみ（淡い藤色） -->
    <path fill="#E8D5F0" stroke="#C9A2D8" stroke-width="1" d="M 14,0 C 16.45,5.67 21.35,12.6 31.15,15.12 C 40.95,17.01 50.75,15.12 57.12,11.34 Q 63.98,6.93 63.98,0 Q 63.98,-6.93 57.12,-11.34 C 50.75,-15.12 40.95,-17.01 31.15,-15.12 C 21.35,-12.6 16.45,-5.67 14,0 Z" transform="rotate(0)"/>
    <path fill="#E8D5F0" stroke="#C9A2D8" stroke-width="1" d="M 14,0 C 16.45,5.67 21.35,12.6 31.15,15.12 C 40.95,17.01 50.75,15.12 57.12,11.34 Q 63.98,6.93 63.98,0 Q 63.98,-6.93 57.12,-11.34 C 50.75,-15.12 40.95,-17.01 31.15,-15.12 C 21.35,-12.6 16.45,-5.67 14,0 Z" transform="rotate(45)"/>
    <path fill="#E8D5F0" stroke="#C9A2D8" stroke-width="1" d="M 14,0 C 16.45,5.67 21.35,12.6 31.15,15.12 C 40.95,17.01 50.75,15.12 57.12,11.34 Q 63.98,6.93 63.98,0 Q 63.98,-6.93 57.12,-11.34 C 50.75,-15.12 40.95,-17.01 31.15,-15.12 C 21.35,-12.6 16.45,-5.67 14,0 Z" transform="rotate(90)"/>
    <path fill="#E8D5F0" stroke="#C9A2D8" stroke-width="1" d="M 14,0 C 16.45,5.67 21.35,12.6 31.15,15.12 C 40.95,17.01 50.75,15.12 57.12,11.34 Q 63.98,6.93 63.98,0 Q 63.98,-6.93 57.12,-11.34 C 50.75,-15.12 40.95,-17.01 31.15,-15.12 C 21.35,-12.6 16.45,-5.67 14,0 Z" transform="rotate(135)"/>
    <path fill="#E8D5F0" stroke="#C9A2D8" stroke-width="1" d="M 14,0 C 16.45,5.67 21.35,12.6 31.15,15.12 C 40.95,17.01 50.75,15.12 57.12,11.34 Q 63.98,6.93 63.98,0 Q 63.98,-6.93 57.12,-11.34 C 50.75,-15.12 40.95,-17.01 31.15,-15.12 C 21.35,-12.6 16.45,-5.67 14,0 Z" transform="rotate(180)"/>
    <path fill="#E8D5F0" stroke="#C9A2D8" stroke-width="1" d="M 14,0 C 16.45,5.67 21.35,12.6 31.15,15.12 C 40.95,17.01 50.75,15.12 57.12,11.34 Q 63.98,6.93 63.98,0 Q 63.98,-6.93 57.12,-11.34 C 50.75,-15.12 40.95,-17.01 31.15,-15.12 C 21.35,-12.6 16.45,-5.67 14,0 Z" transform="rotate(225)"/>
    <path fill="#E8D5F0" stroke="#C9A2D8" stroke-width="1" d="M 14,0 C 16.45,5.67 21.35,12.6 31.15,15.12 C 40.95,17.01 50.75,15.12 57.12,11.34 Q 63.98,6.93 63.98,0 Q 63.98,-6.93 57.12,-11.34 C 50.75,-15.12 40.95,-17.01 31.15,-15.12 C 21.35,-12.6 16.45,-5.67 14,0 Z" transform="rotate(270)"/>
    <path fill="#E8D5F0" stroke="#C9A2D8" stroke-width="1" d="M 14,0 C 16.45,5.67 21.35,12.6 31.15,15.12 C 40.95,17.01 50.75,15.12 57.12,11.34 Q 63.98,6.93 63.98,0 Q 63.98,-6.93 57.12,-11.34 C 50.75,-15.12 40.95,-17.01 31.15,-15.12 C 21.35,-12.6 16.45,-5.67 14,0 Z" transform="rotate(315)"/>

    <!-- 内側レイヤー: 8枚 丸つまみ（淡い桜色、22.5度ずらし） -->
    <path fill="#F2D4DC" stroke="#D4A0B0" stroke-width="1" d="M 8.75,0 C 10.5,4.41 13.65,9.8 20.13,11.76 C 26.6,13.23 33.25,11.76 37.31,8.82 Q 41.79,5.39 41.79,0 Q 41.79,-5.39 37.31,-8.82 C 33.25,-11.76 26.6,-13.23 20.13,-11.76 C 13.65,-9.8 10.5,-4.41 8.75,0 Z" transform="rotate(22.5)"/>
    <path fill="#F2D4DC" stroke="#D4A0B0" stroke-width="1" d="M 8.75,0 C 10.5,4.41 13.65,9.8 20.13,11.76 C 26.6,13.23 33.25,11.76 37.31,8.82 Q 41.79,5.39 41.79,0 Q 41.79,-5.39 37.31,-8.82 C 33.25,-11.76 26.6,-13.23 20.13,-11.76 C 13.65,-9.8 10.5,-4.41 8.75,0 Z" transform="rotate(67.5)"/>
    <path fill="#F2D4DC" stroke="#D4A0B0" stroke-width="1" d="M 8.75,0 C 10.5,4.41 13.65,9.8 20.13,11.76 C 26.6,13.23 33.25,11.76 37.31,8.82 Q 41.79,5.39 41.79,0 Q 41.79,-5.39 37.31,-8.82 C 33.25,-11.76 26.6,-13.23 20.13,-11.76 C 13.65,-9.8 10.5,-4.41 8.75,0 Z" transform="rotate(112.5)"/>
    <path fill="#F2D4DC" stroke="#D4A0B0" stroke-width="1" d="M 8.75,0 C 10.5,4.41 13.65,9.8 20.13,11.76 C 26.6,13.23 33.25,11.76 37.31,8.82 Q 41.79,5.39 41.79,0 Q 41.79,-5.39 37.31,-8.82 C 33.25,-11.76 26.6,-13.23 20.13,-11.76 C 13.65,-9.8 10.5,-4.41 8.75,0 Z" transform="rotate(157.5)"/>
    <path fill="#F2D4DC" stroke="#D4A0B0" stroke-width="1" d="M 8.75,0 C 10.5,4.41 13.65,9.8 20.13,11.76 C 26.6,13.23 33.25,11.76 37.31,8.82 Q 41.79,5.39 41.79,0 Q 41.79,-5.39 37.31,-8.82 C 33.25,-11.76 26.6,-13.23 20.13,-11.76 C 13.65,-9.8 10.5,-4.41 8.75,0 Z" transform="rotate(202.5)"/>
    <path fill="#F2D4DC" stroke="#D4A0B0" stroke-width="1" d="M 8.75,0 C 10.5,4.41 13.65,9.8 20.13,11.76 C 26.6,13.23 33.25,11.76 37.31,8.82 Q 41.79,5.39 41.79,0 Q 41.79,-5.39 37.31,-8.82 C 33.25,-11.76 26.6,-13.23 20.13,-11.76 C 13.65,-9.8 10.5,-4.41 8.75,0 Z" transform="rotate(247.5)"/>
    <path fill="#F2D4DC" stroke="#D4A0B0" stroke-width="1" d="M 8.75,0 C 10.5,4.41 13.65,9.8 20.13,11.76 C 26.6,13.23 33.25,11.76 37.31,8.82 Q 41.79,5.39 41.79,0 Q 41.79,-5.39 37.31,-8.82 C 33.25,-11.76 26.6,-13.23 20.13,-11.76 C 13.65,-9.8 10.5,-4.41 8.75,0 Z" transform="rotate(292.5)"/>
    <path fill="#F2D4DC" stroke="#D4A0B0" stroke-width="1" d="M 8.75,0 C 10.5,4.41 13.65,9.8 20.13,11.76 C 26.6,13.23 33.25,11.76 37.31,8.82 Q 41.79,5.39 41.79,0 Q 41.79,-5.39 37.31,-8.82 C 33.25,-11.76 26.6,-13.23 20.13,-11.76 C 13.65,-9.8 10.5,-4.41 8.75,0 Z" transform="rotate(337.5)"/>

    <!-- 花芯: パール -->
    <circle r="14" fill="#FEF9E7" stroke="#D4A574" stroke-width="1.2"/>
    <circle r="9" fill="#FFF3D4" opacity="0.5"/>
    <circle r="3.5" fill="white" opacity="0.5" cx="-3.5" cy="-3.5"/>
  </g>

  <!-- テキスト -->
  <style>
    @import url('https://fonts.googleapis.com/css2?family=Zen+Maru+Gothic:wght@500;700&amp;display=swap');
  </style>
  <text x="600" y="505" text-anchor="middle"
        font-family="'Zen Maru Gothic', 'Hiragino Maru Gothic ProN', 'M PLUS Rounded 1c', 'Rounded Mplus 1c', sans-serif"
        font-size="56" font-weight="700" fill="#4A3548"
        letter-spacing="6">つまみん</text>
  <text x="600" y="558" text-anchor="middle"
        font-family="'Zen Maru Gothic', 'Hiragino Maru Gothic ProN', 'M PLUS Rounded 1c', sans-serif"
        font-size="24" font-weight="500" fill="#8B7089"
        letter-spacing="3">つまみ細工デザインツール</text>
</svg>
